<?xml version="1.0" standalone="no"?>
<!DOCTYPE svg PUBLIC "-//W3C//DTD SVG 20010904//EN"
 "http://www.w3.org/TR/2001/REC-SVG-20010904/DTD/svg10.dtd">
<svg version="1.0" xmlns="http://www.w3.org/2000/svg"
 width="532.000000pt" height="532.000000pt" viewBox="0 0 532.000000 532.000000"
 preserveAspectRatio="xMidYMid meet">
<metadata>
Created by potrace 1.14, written by Peter Selinger 2001-2017
</metadata>
<g transform="translate(0.000000,532.000000) scale(0.100000,-0.100000)"
fill="#000000" stroke="none">
<path d="M2528 4325 c-123 -23 -163 -47 -214 -126 -50 -79 -62 -88 -180 -135
-49 -20 -98 -43 -108 -52 -46 -41 -70 -153 -46 -216 l9 -25 -36 24 c-99 68
-250 60 -428 -24 -242 -114 -366 -254 -352 -399 4 -35 18 -75 43 -120 88 -157
102 -203 78 -260 -19 -47 -46 -75 -164 -174 -185 -154 -232 -243 -195 -362 22
-68 62 -116 200 -236 156 -135 169 -186 72 -277 -28 -27 -79 -67 -112 -90 -65
-44 -109 -93 -146 -163 -20 -38 -24 -59 -24 -140 0 -80 4 -103 24 -143 33 -67
89 -121 212 -205 122 -83 201 -161 229 -227 21 -49 24 -93 14 -193 l-7 -61
-68 -30 c-64 -29 -84 -51 -59 -66 5 -3 34 9 65 26 56 31 92 32 45 0 -13 -9
-35 -25 -49 -37 l-24 -21 79 -67 c247 -212 498 -328 774 -356 137 -14 563 9
738 40 400 71 764 189 1076 347 l80 40 -65 31 -64 31 48 1 c29 0 64 -8 87 -20
38 -19 41 -19 58 -3 10 10 39 29 65 43 81 43 257 179 257 199 0 10 -14 63 -31
117 -21 67 -31 122 -32 171 -2 64 1 75 28 115 17 23 60 65 95 91 79 58 124
131 140 227 15 84 6 107 -62 160 -29 23 -58 52 -65 64 -28 49 1 261 44 325 77
114 41 177 -155 268 -106 50 -131 69 -153 117 -39 86 -21 215 60 446 37 105
41 124 41 215 0 84 -4 108 -24 151 -53 115 -141 176 -307 215 -108 25 -162 49
-184 83 -9 13 -20 63 -25 111 -10 99 -32 151 -96 229 -89 110 -263 214 -397
237 -56 9 -90 9 -153 0 -144 -20 -160 -17 -291 49 -106 54 -126 61 -193 65
-44 3 -107 -2 -152 -10z m373 -589 c53 -22 95 -69 114 -126 14 -42 15 -71 10
-169 -9 -149 2 -200 56 -266 21 -26 39 -51 39 -56 0 -15 63 -80 94 -96 36 -19
144 -21 220 -4 59 14 65 10 105 -70 63 -127 65 -237 7 -484 -48 -203 -59 -286
-53 -375 5 -70 4 -78 -25 -130 -31 -54 -198 -303 -261 -388 l-31 -43 -1 -192
c0 -170 3 -201 23 -270 12 -42 22 -81 22 -85 0 -5 -14 -29 -31 -55 -21 -31
-79 -82 -187 -164 -183 -137 -245 -192 -262 -233 l-12 -30 -41 33 c-22 17 -78
52 -124 77 -45 25 -115 73 -155 106 -40 34 -102 86 -138 116 -109 91 -134 152
-91 222 31 51 41 127 41 305 l0 169 -53 68 c-82 105 -175 246 -256 386 -65
114 -76 127 -96 122 -17 -4 -29 3 -53 32 -55 67 -92 147 -92 200 0 64 20 95
116 180 153 135 191 176 203 222 8 29 9 53 2 79 -6 20 -8 40 -6 44 11 17 114
43 172 43 55 0 76 -7 178 -57 64 -31 129 -57 145 -57 31 0 53 21 48 45 -5 25
-207 105 -305 120 -58 9 -142 -10 -198 -46 -26 -16 -50 -27 -53 -24 -4 3 -7
79 -7 168 0 146 2 168 23 219 34 83 99 151 187 193 39 19 82 35 94 35 12 0 43
20 69 43 125 116 231 182 328 207 54 13 191 5 235 -14z m-791 -2394 c0 -4 -15
-23 -34 -41 -82 -80 -98 -210 -40 -328 44 -91 147 -186 284 -262 173 -97 271
-157 315 -196 32 -27 4 -16 -150 62 -320 161 -414 234 -483 372 -35 70 -37 81
-37 166 0 84 2 95 30 141 36 58 115 117 115 86z m1270 -95 c48 -111 4 -262
-109 -376 -49 -50 -166 -129 -335 -227 -88 -50 -39 -7 108 96 252 175 325 258
334 380 5 74 -7 122 -46 185 l-25 40 26 -23 c14 -13 35 -47 47 -75z m210 -150
c0 -37 -9 -70 -29 -114 -57 -121 -138 -186 -396 -317 -82 -42 -183 -101 -224
-131 -40 -31 -76 -54 -78 -51 -3 2 24 33 59 68 65 67 122 103 316 204 146 74
236 155 286 254 19 38 37 87 41 109 9 56 25 42 25 -22z m-1526 -461 c85 -61
158 -95 324 -155 159 -57 240 -95 225 -104 -17 -11 -145 14 -233 45 -201 71
-392 199 -474 317 -47 67 -19 68 41 1 30 -33 83 -80 117 -104z m1560 8 c-46
-35 -206 -105 -284 -123 -135 -31 -186 -33 -65 -3 136 34 256 82 315 126 25
18 47 29 49 24 1 -5 -5 -16 -15 -24z"/>
<path d="M3102 2944 c-65 -17 -198 -70 -229 -90 -27 -17 -28 -27 -7 -48 25
-25 53 -19 173 39 63 30 133 57 156 61 57 8 144 -11 212 -47 31 -16 58 -28 60
-25 8 8 -120 89 -169 108 -57 21 -123 22 -196 2z"/>
<path d="M2195 2731 c16 -28 -34 -41 -59 -15 -9 8 -16 12 -16 7 0 -5 5 -14 12
-21 8 -8 4 -14 -18 -24 -16 -7 -33 -19 -37 -26 -5 -7 -21 -18 -35 -24 -15 -6
-22 -12 -15 -15 10 -3 10 -10 2 -25 -9 -17 -8 -23 5 -30 14 -8 15 -12 4 -26
-11 -14 -11 -14 7 -5 13 8 26 8 38 1 16 -8 16 -12 5 -26 -12 -15 -11 -16 4 -4
21 17 58 7 59 -16 0 -11 3 -12 6 -4 8 20 63 15 63 -5 0 -11 3 -14 8 -7 4 6 34
14 67 18 59 7 141 39 180 70 11 9 -2 6 -30 -8 -27 -13 -68 -29 -89 -35 l-39
-10 31 30 c36 35 50 89 33 125 -6 13 -7 24 -3 24 13 0 55 -31 101 -74 43 -40
44 -40 21 -8 -47 70 -152 122 -245 122 -22 0 -47 6 -54 13 -11 10 -12 9 -6 -2z
m53 -53 c17 -17 15 -35 -5 -42 -20 -8 -59 27 -49 43 9 15 39 14 54 -1z m-96
-58 c-4 -46 -1 -53 32 -86 l35 -35 -32 6 c-52 11 -147 57 -147 71 0 11 95 94
109 94 3 0 4 -23 3 -50z m178 -45 c0 -8 -7 -15 -15 -15 -8 0 -15 7 -15 15 0 8
7 15 15 15 8 0 15 -7 15 -15z"/>
<path d="M3185 2730 c-3 -5 -25 -10 -49 -10 -94 0 -198 -52 -246 -122 -23 -32
-22 -32 21 8 46 43 88 74 101 74 4 0 3 -11 -3 -24 -17 -36 -3 -91 31 -125 l30
-29 -38 10 c-20 5 -59 21 -87 34 -28 14 -41 17 -30 8 39 -31 121 -63 180 -70
33 -4 63 -12 67 -18 5 -7 8 -4 8 7 0 20 55 25 63 5 3 -8 6 -7 6 4 1 23 38 33
59 16 15 -12 16 -11 4 4 -11 14 -11 18 5 26 12 7 25 7 38 -1 18 -9 18 -9 7 5
-11 14 -10 18 4 26 13 7 14 13 5 30 -8 15 -8 22 2 25 7 3 0 9 -15 15 -14 6
-30 17 -35 24 -4 7 -21 19 -37 26 -22 10 -26 16 -18 24 7 7 12 16 12 21 0 5
-7 1 -16 -7 -8 -9 -21 -16 -27 -16 -21 0 -40 17 -33 29 4 6 5 11 2 11 -3 0 -8
-4 -11 -10z m-80 -61 c4 -12 3 -25 -3 -31 -15 -15 -52 9 -52 32 0 29 46 27 55
-1z m194 -40 c28 -22 51 -46 51 -53 0 -15 -96 -60 -150 -71 l-34 -7 38 35 c36
34 38 39 34 87 -1 27 0 50 3 50 4 0 29 -18 58 -41z m-111 -51 c-3 -7 -11 -13
-18 -13 -7 0 -15 6 -17 13 -3 7 4 12 17 12 13 0 20 -5 18 -12z"/>
<path d="M2047 2679 c7 -7 15 -10 18 -7 3 3 -2 9 -12 12 -14 6 -15 5 -6 -5z"/>
<path d="M3330 2680 c-9 -6 -10 -10 -3 -10 6 0 15 5 18 10 8 12 4 12 -15 0z"/>
<path d="M1987 2629 c7 -7 15 -10 18 -7 3 3 -2 9 -12 12 -14 6 -15 5 -6 -5z"/>
<path d="M3390 2630 c-9 -6 -10 -10 -3 -10 6 0 15 5 18 10 8 12 4 12 -15 0z"/>
<path d="M2475 1750 c38 -44 112 -70 200 -70 44 0 96 5 115 10 35 10 136 68
129 74 -2 2 -35 -4 -74 -14 -115 -31 -262 -24 -370 16 l-20 7 20 -23z"/>
</g>
</svg>
