<?xml version="1.0" standalone="no"?>
<!DOCTYPE svg PUBLIC "-//W3C//DTD SVG 20010904//EN"
 "http://www.w3.org/TR/2001/REC-SVG-20010904/DTD/svg10.dtd">
<svg version="1.0" xmlns="http://www.w3.org/2000/svg"
 width="1280.000000pt" height="640.000000pt" viewBox="0 0 1280.000000 640.000000"
 preserveAspectRatio="xMidYMid meet">
<metadata>
Created by potrace 1.15, written by Peter Selinger 2001-2017
</metadata>
<g transform="translate(0.000000,640.000000) scale(0.100000,-0.100000)"
fill="#ffffff" stroke="none">
<path d="M10251 5191 c-22 -15 4 -65 69 -131 l55 -57 -35 4 c-47 7 -65 -14
-57 -64 4 -20 59 -145 123 -277 65 -133 133 -277 152 -321 32 -74 102 -260
102 -270 0 -3 -24 -5 -52 -5 -282 -1 -1683 -325 -4143 -960 -154 -40 -415
-107 -580 -150 -165 -42 -435 -112 -600 -154 -165 -43 -340 -88 -390 -101 -49
-13 -180 -47 -290 -75 -110 -28 -249 -64 -310 -80 -60 -16 -249 -65 -420 -110
-725 -190 -1265 -335 -1790 -482 -1036 -289 -1521 -451 -1886 -627 -214 -103
-250 -140 -121 -127 96 10 496 90 737 148 437 104 2964 740 3750 943 72 19
229 59 350 90 682 174 664 170 1875 485 1964 512 3297 875 3804 1036 60 19
110 34 111 32 2 -2 19 -73 39 -158 38 -167 63 -311 95 -540 27 -190 37 -244
55 -279 12 -22 13 -37 6 -62 -15 -53 -12 -109 6 -116 38 -14 67 15 374 377
206 243 557 597 757 762 83 69 262 210 397 313 135 102 256 200 268 217 13 17
41 47 62 68 34 33 38 41 27 54 -23 28 -109 46 -416 86 -700 94 -1110 195
-1724 425 -264 98 -370 127 -400 106z m492 -426 c424 -226 1017 -363 1472
-340 l120 6 -72 -35 c-411 -197 -837 -567 -1098 -957 -37 -54 -68 -99 -70 -99
-1 0 2 24 7 53 17 100 11 392 -11 519 -59 339 -204 651 -394 846 -28 28 -49
52 -45 52 3 0 44 -20 91 -45z"/>
</g>
</svg>
